inDegrees=yes
name=ik_S40_A12_T01
DataType=double
version=3
OpenSimVersion=4.3-2021-08-27-4bc7ad9
endheader
time	pelvis_tilt	pelvis_list	pelvis_rotation	pelvis_tx	pelvis_ty	pelvis_tz	hip_flexion_r	hip_adduction_r	hip_rotation_r	knee_angle_r	knee_angle_r_beta	ankle_angle_r	subtalar_angle_r	mtp_angle_r	hip_flexion_l	hip_adduction_l	hip_rotation_l	knee_angle_l	knee_angle_l_beta	ankle_angle_l	subtalar_angle_l	mtp_angle_l	lumbar_extension	lumbar_bending	lumbar_rotation	arm_flex_r	arm_add_r	arm_rot_r	elbow_flex_r	pro_sup_r	wrist_flex_r	wrist_dev_r	arm_flex_l	arm_add_l	arm_rot_l	elbow_flex_l	pro_sup_l	wrist_flex_l	wrist_dev_l
4.040000000000002	-0.8483278513120079	2.756819008645325	36.0414537767222	0	0.9399999999999999	0	28.93566956167945	-9.079795081791266	-8.280807282823169	33.21639808390475	0.5797355122172736	0	0	0	28.93566956167945	-9.079795081791266	-8.280807282823169	33.21639808390475	0.5797355122172736	0	0	0	0.3798836872735924	2.551452004368046	8.386690415844434	-4.052718738040929	-2.772348018328595	-3.999557889928666	2.044572879856327	83.68800785656883	0	0	76.18550423911007	-19.38880277201844	14.42007966626214	2.708426030011471	62.09726131564596	0	0
4.060000000000001	-1.003978747523651	2.830412843553308	35.79083848231542	0	0.9399999999999999	0	29.07274765750375	-9.098271972330798	-8.306319168818698	33.38494657237316	0.582677238290307	0	0	0	29.07274765750375	-9.098271972330798	-8.306319168818698	33.38494657237316	0.582677238290307	0	0	0	0.3000371442828796	2.704722062117017	8.385058736569658	-4.002073747669612	-3.117173519124325	-3.777751901556017	2.137037671011693	83.5512112335914	0	0	79.46343276640175	-19.34788021081934	17.25408425974026	2.82961412856424	59.91925648093257	0	0
4.080000000000001	-1.154359883323929	2.908979464960309	35.64159694400087	0	0.9399999999999999	0	29.13523941668325	-9.106481236029111	-8.3177887660952	33.46217425818723	0.5840251156814582	0	0	0	29.13523941668325	-9.106481236029111	-8.3177887660952	33.46217425818723	0.5840251156814582	0	0	0	0.2204660236081774	2.859137149483769	8.314950399354379	-4.026516702906735	-3.469156158424756	-3.563578218528018	2.302026092999143	83.55064649047829	0	0	82.45668140841906	-19.10177751484101	19.71906716136696	1.430605165246803	58.0996348455105	0	0
4.100000000000001	-1.293518430564829	2.992024541723596	35.47320069913353	0	0.9399999999999999	0	29.25327212767114	-9.122144862994658	-8.339579253649212	33.60709888773191	0.586554527634246	0	0	0	29.25327212767114	-9.122144862994658	-8.339579253649212	33.60709888773191	0.586554527634246	0	0	0	0.1551036861389601	3.01063376559334	8.290703379192728	-3.938863467140404	-3.79681954290649	-3.389938794281694	2.285761391297402	83.42143841853323	0	0	85.44488740563068	-18.97523963096434	21.86647608730699	1.702501858591528	56.59725913630332	0	0
4.12	-1.354941159614874	3.049192277087885	35.30372884453418	0	0.9399999999999999	0	29.37673462970791	-9.138546078585271	-8.362391994490459	33.75787921531403	0.5891861407977896	0	0	0	29.37673462970791	-9.138546078585271	-8.362391994490459	33.75787921531403	0.5891861407977896	0	0	0	0.139673505853758	3.095070909826366	8.359625815595324	-3.988876073254889	-4.006937371360007	-3.351206905903257	2.368421948119013	83.48204445045924	0	0	90.55566915363627	-18.01324658823004	25.73768750183443	-0.5280567142636695	54.30289479782446	0	0
4.14	-1.490186806603599	3.248964998746814	35.12696798985431	0	0.9399999999999999	0	29.40459451651392	-9.143662222866704	-8.368648804138701	33.78501998740712	0.5896598366323473	0	0	0	29.40459451651392	-9.143662222866704	-8.368648804138701	33.78501998740712	0.5896598366323473	0	0	0	0.1471462809257316	3.334344328817962	8.31528731057157	-4.134513193068639	-4.557083251898062	-3.198749564425052	2.461639945667304	83.49987641265393	0	0	90.54867940730352	-18.52368336612994	25.20692224814472	2.185967384910056	54.22874610722761	0	0
4.159999999999999	-1.560607069703036	3.396237180332303	34.96132043381284	0	0.9399999999999999	0	29.59163874008532	-9.167334920343837	-8.402290707262523	34.01817133670346	0.5937290953330359	0	0	0	29.59163874008532	-9.167334920343837	-8.402290707262523	34.01817133670346	0.5937290953330359	0	0	0	0.1744636584122597	3.494703665564151	8.356121884351143	-4.289638852716862	-4.924551278314781	-3.127826799614514	2.5535127414761	83.49986745656729	0	0	92.99251573655596	-18.51723856073998	26.50284912785534	4.888438950920686	53.54975285663321	0	0
4.179999999999999	-1.665538834240151	3.543668310412356	34.83162862107219	0	0.9399999999999999	0	29.66527562367644	-9.176495226605804	-8.415414541156879	34.10987865112023	0.5953296899177701	0	0	0	29.66527562367644	-9.176495226605804	-8.415414541156879	34.10987865112023	0.5953296899177701	0	0	0	0.174255841685339	3.674846272674757	8.332545976873478	-4.324087985488773	-5.345320267196051	-3.065847054076519	2.503449116560965	83.60970455474514	0	0	96.94106255101967	-17.69589447610389	29.33865090011146	2.994519671735476	52.02501326321713	0	0
4.199999999999998	-1.730748565228639	3.598013956832492	34.71205681745136	0	0.9399999999999999	0	29.67170490750213	-9.177648853815629	-8.416840596207875	34.11615421614231	0.5954392191898286	0	0	0	29.67170490750213	-9.177648853815629	-8.416840596207875	34.11615421614231	0.5954392191898286	0	0	0	0.1486921075933568	3.761175379758229	8.38856047819897	-4.299929828855503	-5.546839868814515	-3.127745023376047	2.5876862407316	83.67445633957389	0	0	98.88019751038209	-17.45917051400377	30.81836399467355	3.236378929215942	51.25265181664346	0	0
4.219999999999998	-1.872834281919872	3.730400021465917	34.5394981871878	0	0.9399999999999999	0	29.67942362464797	-9.179034489230016	-8.418553463366372	34.12367885146317	0.5955705488511893	0	0	0	29.67942362464797	-9.179034489230016	-8.418553463366372	34.12367885146317	0.5955705488511893	0	0	0	0.1058733442187672	3.955266107379042	8.407551633660605	-4.258264405016178	-5.999249824686375	-3.076569326216774	2.592379926473697	83.66160385119055	0	0	100.6617082937476	-17.26059650534278	32.19605739579335	3.127190884751918	50.15187858376935	0	0
4.239999999999998	-2.021334349850104	3.878959013019285	34.40487787053384	0	0.9399999999999999	0	29.68776767557512	-9.180529200837874	-8.420403006535226	34.13181974995118	0.5957126343338758	0	0	0	29.68776767557512	-9.180529200837874	-8.420403006535226	34.13181974995118	0.5957126343338758	0	0	0	0.06803326994216356	4.161953120120808	8.395594729812291	-4.259379345647734	-6.475154649409101	-3.024735502225424	2.625811986405177	83.61446368095156	0	0	100.6559112398803	-17.58005551923532	31.76393762939483	3.942680261667505	50.1380850954499	0	0
4.259999999999997	-2.1880864506558	3.997322380184705	34.20109119359464	0	0.9399999999999999	0	29.69507667203407	-9.181837775345047	-8.422022811852914	34.13894871468289	0.5958370582407027	0	0	0	29.69507667203407	-9.181837775345047	-8.422022811852914	34.13894871468289	0.5958370582407027	0	0	0	-0.002584734598998781	4.354398614238765	8.413231590771037	-4.175801739138993	-6.946023588132808	-2.954386085230939	2.694022945856109	83.5932040776928	0	0	102.3288795421952	-17.40778668497369	32.93874221836737	3.773342288984642	48.95558446486611	0	0
4.279999999999997	-2.341750043778658	4.121099969206112	34.0080093444361	0	0.9399999999999999	0	29.70091099772149	-9.182878504074342	-8.423313048925662	34.1446523315029	0.595936605133484	0	0	0	29.70091099772149	-9.182878504074342	-8.423313048925662	34.1446523315029	0.595936605133484	0	0	0	-0.05840421859172155	4.542672720186823	8.374929682560733	-4.108781720176161	-7.36760761177022	-2.850460805342724	2.679005591406983	83.71338548169886	0	0	102.4456496267638	-17.85708156479275	32.56331055834011	5.066759291721327	48.72269951219809	0	0
4.299999999999996	-2.412331598752696	4.186228948910844	33.95821672958171	0	0.9399999999999999	0	29.71187846446351	-9.184669709384842	-8.425611401638559	34.15601128512773	0.5961348562738187	0	0	0	29.71187846446351	-9.184669709384842	-8.425611401638559	34.15601128512773	0.5961348562738187	0	0	0	-0.07636568952845511	4.632311559983828	8.316695231684028	-4.028615923024923	-7.596107344056888	-2.958162540024188	2.662038308596657	83.79287409775719	0	0	105.4850099200661	-16.83296140110122	34.63610388582383	3.147400105918407	47.56747556051197	0	0
